<svg id="changeColor" fill="#DC7633" xmlns="http://www.w3.org/2000/svg" xmlns:xlink="http://www.w3.org/1999/xlink" width="113" zoomAndPan="magnify" viewBox="0 0 375 374.9999" height="113" preserveAspectRatio="xMidYMid meet" version="1.0"><defs><path id="pathAttribute" d="M 7.09375 7.09375 L 367.84375 7.09375 L 367.84375 367.84375 L 7.09375 367.84375 Z M 7.09375 7.09375 " fill="#03989e"></path></defs><g><path id="pathAttribute" d="M 187.46875 7.09375 C 87.851562 7.09375 7.09375 87.851562 7.09375 187.46875 C 7.09375 287.085938 87.851562 367.84375 187.46875 367.84375 C 287.085938 367.84375 367.84375 287.085938 367.84375 187.46875 C 367.84375 87.851562 287.085938 7.09375 187.46875 7.09375 " fill-opacity="1" fill-rule="nonzero" fill="#03989e"></path></g><g id="inner-icon" transform="translate(85, 75)"> <!--?xml version="1.0" encoding="UTF-8"?--><svg width="210" height="210" viewBox="0 0 48 48" fill="none" xmlns="http://www.w3.org/2000/svg" id="IconChangeColor"><rect width="48" height="48" fill="white" fill-opacity="0.01"></rect><path d="M37 22V37M11 37V44H37V37M11 37H4V22C4 19 6 15.5 9 13C12 10.5 16 10 16 10L24 18M11 37V22M37 37H44V22C44 19 42 15.5 39 13C36 10.5 32 10 32 10L24 18M24 18V27" stroke="#ffffff" stroke-width="2" stroke-linecap="round" stroke-linejoin="round" id="mainIconPathAttribute"></path><path d="M9 13C12 10.5 16 10 16 10L24 18L32 10C32 10 36 10.5 39 13L41 8.5L39 4H9L7 8.5L9 13Z" fill="none" stroke="#ffffff" stroke-width="1" stroke-linecap="round" stroke-linejoin="round" id="mainIconPathAttribute"></path></svg> </g></svg>